HIERARCHY
ROOT Hips
{
 OFFSET 0.000000 0.000000 0.000000
 CHANNELS 6 Xposition Yposition Zposition Yrotation Xrotation Zrotation
 JOINT Chest
 {
  OFFSET 0.000000 9.585900 0.002600
  CHANNELS 3 Yrotation Xrotation Zrotation
  JOINT Chest2
  {
   OFFSET 0.000000 9.601200 -0.005300
   CHANNELS 3 Yrotation Xrotation Zrotation
   JOINT Chest3
   {
    OFFSET 0.000000 9.561800 0.000000
    CHANNELS 3 Yrotation Xrotation Zrotation
    JOINT Chest4
    {
     OFFSET 0.000000 9.552100 0.000000
     CHANNELS 3 Yrotation Xrotation Zrotation
     JOINT Neck
     {
      OFFSET 0.000000 14.453000 0.000000
      CHANNELS 3 Yrotation Xrotation Zrotation
      JOINT Head
      {
       OFFSET 0.000000 8.936500 -0.011300
       CHANNELS 3 Yrotation Xrotation Zrotation
       End Site
       {
        OFFSET 0.000000 17.073600 -0.006000
       }
      }
     }
     JOINT RightCollar
     {
      OFFSET -2.921100 9.558500 0.000000
      CHANNELS 3 Yrotation Xrotation Zrotation
      JOINT RightShoulder
      {
       OFFSET -13.519700 0.000000 0.000000
       CHANNELS 3 Yrotation Xrotation Zrotation
       JOINT RightElbow
       {
        OFFSET 0.000000 -29.696600 0.000000
        CHANNELS 3 Yrotation Xrotation Zrotation
        JOINT RightWrist
        {
         OFFSET 0.000000 -24.004700 0.000000
         CHANNELS 3 Yrotation Xrotation Zrotation
         End Site
         {
          OFFSET 0.000000 -17.728500 0.000000
         }
        }
       }
      }
     }
     JOINT LeftCollar
     {
      OFFSET 2.921100 9.558500 0.000000
      CHANNELS 3 Yrotation Xrotation Zrotation
      JOINT LeftShoulder
      {
       OFFSET 13.519700 0.000000 0.000000
       CHANNELS 3 Yrotation Xrotation Zrotation
       JOINT LeftElbow
       {
        OFFSET 0.000000 -29.696600 0.000000
        CHANNELS 3 Yrotation Xrotation Zrotation
        JOINT LeftWrist
        {
         OFFSET 0.000000 -24.004700 0.000000
         CHANNELS 3 Yrotation Xrotation Zrotation
         End Site
         {
          OFFSET 0.000000 -17.728500 0.000000
         }
        }
       }
      }
     }
    }
   }
  }
 }
 JOINT RightHip
 {
  OFFSET -7.771700 -0.012900 -0.001300
  CHANNELS 3 Yrotation Xrotation Zrotation
  JOINT RightKnee
  {
   OFFSET 0.000000 -40.869800 0.001200
   CHANNELS 3 Yrotation Xrotation Zrotation
   JOINT RightAnkle
   {
    OFFSET 0.000000 -39.717900 0.002100
    CHANNELS 3 Yrotation Xrotation Zrotation
    JOINT RightToe
    {
     OFFSET 0.000000 -4.965400 11.033500
     CHANNELS 3 Yrotation Xrotation Zrotation
     End Site
     {
      OFFSET 0.000000 -1.423100 5.872300
     }
    }
   }
  }
 }
 JOINT LeftHip
 {
  OFFSET 7.771700 -0.012900 -0.001300
  CHANNELS 3 Yrotation Xrotation Zrotation
  JOINT LeftKnee
  {
   OFFSET 0.000000 -40.869800 0.001200
   CHANNELS 3 Yrotation Xrotation Zrotation
   JOINT LeftAnkle
   {
    OFFSET 0.000000 -39.717900 0.002100
    CHANNELS 3 Yrotation Xrotation Zrotation
    JOINT LeftToe
    {
     OFFSET 0.000000 -4.965400 11.033500
     CHANNELS 3 Yrotation Xrotation Zrotation
     End Site
     {
      OFFSET 0.000000 -1.423100 5.872300
     }
    }
   }
  }
 }
}
MOTION
Frames: 13
Frame Time: 0.008333
-145.302618 51.625226 -60.161794 178.015131 -20.275870 -0.266011 -1.864882 12.179608 0.926052 -0.154793 0.921752 0.144500 -0.246461 1.561757 0.206475 -1.657188 11.122551 1.378067 -2.573350 16.537713 -1.181100 -2.437817 -8.326815 -0.594141 4.018524 16.747500 12.110242 30.152646 -5.179592 -28.645980 68.390189 -71.029345 -104.379345 -0.588176 4.497759 11.069440 -1.981705 15.620815 -14.741097 -32.509951 2.919549 28.874798 -61.747510 -74.351143 102.115856 11.926314 8.071446 -9.867067 -12.822247 -62.453739 5.549904 -68.261715 82.400277 -76.631370 -2.344544 -5.664982 7.139051 0.249820 -0.850440 0.113075 12.476433 -60.578185 -9.186925 29.259350 86.644080 34.767862 -4.183224 -12.524443 1.998760 0.015654 0.117732 0.007305
-145.303490 51.626339 -60.160293 177.988637 -20.280446 -0.247577 -1.850409 12.188751 0.934850 -0.156833 0.926052 0.143597 -0.248800 1.566942 0.213129 -1.656103 11.128853 1.378671 -2.567831 16.517094 -1.171238 -2.435784 -8.352995 -0.576290 4.060785 16.709073 12.135528 30.149288 -5.163511 -28.668999 68.219392 -71.015695 -104.210402 -0.581786 4.593322 11.130022 -1.984251 15.588590 -14.752040 -32.500779 2.910576 28.906365 -61.870395 -74.354047 102.244604 11.943936 8.097350 -9.856663 -12.804722 -62.453934 5.537816 -68.210560 82.404078 -76.573310 -2.344683 -5.654756 7.115030 0.261674 -0.846923 0.118290 12.514445 -60.565507 -9.197807 29.201297 86.639684 34.705460 -4.181187 -12.524696 2.000194 0.015311 0.116089 0.008909
-145.303632 51.627312 -60.158689 177.979409 -20.280671 -0.237719 -1.862652 12.206495 0.960394 -0.143382 0.913777 0.116679 -0.251664 1.575867 0.223641 -1.654187 11.138631 1.383967 -2.567976 16.493275 -1.161016 -2.432920 -8.371785 -0.579013 4.084374 16.679850 12.132162 30.207360 -5.162415 -28.663513 68.025619 -70.975209 -104.074274 -0.573108 4.682105 11.186233 -1.988446 15.544304 -14.750175 -32.493985 2.903429 28.924079 -61.996253 -74.367873 102.382182 11.952049 8.089992 -9.823122 -12.814217 -62.457212 5.536832 -68.173061 82.407311 -76.534344 -2.332324 -5.641974 7.098758 0.261647 -0.854836 0.118885 12.542110 -60.559300 -9.208407 29.077081 86.636133 34.579252 -4.187563 -12.522710 2.001887 0.017189 0.114234 0.010958
-145.303779 51.628367 -60.157899 177.970761 -20.282524 -0.225684 -1.860267 12.215284 0.964039 -0.145025 0.912528 0.112960 -0.250630 1.585421 0.232422 -1.653197 11.135576 1.377469 -2.564863 16.482187 -1.136836 -2.430014 -8.402583 -0.575906 4.104160 16.662175 12.134977 30.205386 -5.157354 -28.666099 67.863108 -70.984426 -103.897983 -0.555945 4.740228 11.211772 -1.997962 15.514971 -14.732994 -32.485174 2.894563 28.915255 -62.160141 -74.371312 102.576587 11.956154 8.093907 -9.792903 -12.811830 -62.459065 5.526896 -68.147548 82.408587 -76.508252 -2.322237 -5.630540 7.090124 0.261047 -0.861949 0.116282 12.566231 -60.549880 -9.222409 29.003642 86.631053 34.503946 -4.183252 -12.524320 1.999735 0.015371 0.115018 0.012901
-145.305135 51.630151 -60.159955 177.946646 -20.299078 -0.197962 -1.842436 12.233459 0.948033 -0.146354 0.921714 0.126700 -0.250393 1.590362 0.230583 -1.652040 11.132163 1.372451 -2.560584 16.469462 -1.116835 -2.426116 -8.442311 -0.563107 4.106360 16.647221 12.127943 30.215510 -5.155131 -28.662075 67.707908 -70.995414 -103.716383 -0.532892 4.803808 11.227133 -2.029804 15.477699 -14.694772 -32.457433 2.874426 28.882636 -62.545148 -74.360396 103.008663 11.974772 8.134358 -9.781168 -12.753648 -62.448985 5.481006 -68.143330 82.409269 -76.504165 -2.323716 -5.623154 7.088947 0.261872 -0.859402 0.115063 12.625204 -60.519668 -9.258171 28.933327 86.628552 34.435631 -4.178487 -12.528115 2.002738 0.015583 0.113175 0.011807
-145.305112 51.630802 -60.159898 177.926176 -20.299755 -0.177502 -1.831900 12.244449 0.948796 -0.142657 0.936993 0.140571 -0.249247 1.572703 0.208612 -1.624028 11.185265 1.397689 -2.560887 16.407838 -1.097626 -2.445235 -8.468532 -0.578545 4.107038 16.575689 12.111408 30.235807 -5.126607 -28.638712 67.513623 -70.981321 -103.541447 -0.507273 4.867589 11.242086 -2.080485 15.401924 -14.701283 -32.443468 2.862049 28.901271 -62.562697 -74.385990 103.032664 11.981490 8.140828 -9.771492 -12.740960 -62.456109 5.467217 -68.126501 82.415730 -76.486134 -2.315140 -5.609642 7.072967 0.264995 -0.869033 0.115641 12.679131 -60.509237 -9.288070 28.802375 86.626891 34.307152 -4.178151 -12.530202 2.006753 0.015928 0.112549 0.010969
-145.305000 51.631034 -60.159830 177.907433 -20.298088 -0.155407 -1.809944 12.263033 0.962959 -0.148141 0.922310 0.119177 -0.249915 1.574759 0.208364 -1.616924 11.191913 1.397957 -2.561535 16.393060 -1.092406 -2.450996 -8.477050 -0.579389 4.156175 16.539131 12.126505 30.182325 -5.111877 -28.634176 67.350319 -70.992597 -103.341724 -0.480316 4.937820 11.256706 -2.106640 15.371484 -14.685295 -32.434017 2.857800 28.908847 -62.772802 -74.376023 103.259494 12.000732 8.123323 -9.769531 -12.737763 -62.469628 5.457584 -68.134206 82.425576 -76.492085 -2.314629 -5.588584 7.048487 0.274328 -0.882351 0.120273 12.725879 -60.501835 -9.317790 28.752481 86.624311 34.258259 -4.181114 -12.531662 2.007500 0.016592 0.111238 0.009629
-145.306307 51.631208 -60.160819 177.896117 -20.300886 -0.124436 -1.797613 12.275453 0.953363 -0.152096 0.917732 0.109971 -0.234321 1.601796 0.232951 -1.630652 11.173234 1.374175 -2.562250 16.378286 -1.086749 -2.444996 -8.507600 -0.560294 4.151376 16.520112 12.122768 30.210386 -5.082171 -28.618991 67.070761 -70.992415 -103.009105 -0.465007 4.986020 11.213431 -2.131477 15.340516 -14.667797 -32.431672 2.854395 28.915461 -62.976549 -74.355755 103.480450 12.010900 8.148733 -9.787516 -12.745707 -62.482738 5.440018 -68.151481 82.448257 -76.519566 -2.310162 -5.569753 7.028588 0.275254 -0.898140 0.119587 12.788984 -60.485657 -9.366319 28.632728 86.620144 34.133772 -4.189273 -12.534033 2.014080 0.017674 0.111728 0.010910
-145.302625 51.631571 -60.163207 177.893635 -20.312218 -0.123384 -1.787361 12.297137 0.970651 -0.142633 0.932935 0.127279 -0.242093 1.591731 0.215769 -1.593154 11.215280 1.390329 -2.589731 16.321518 -1.083774 -2.438456 -8.554548 -0.523186 4.131322 16.449868 12.096548 30.244973 -5.023887 -28.581333 66.849698 -70.975522 -102.804466 -0.444728 5.067055 11.197055 -2.194047 15.265557 -14.666149 -32.437786 2.856492 28.926228 -63.113596 -74.336615 103.639524 12.012235 8.183270 -9.818996 -12.748111 -62.473552 5.435133 -68.210071 82.441450 -76.556989 -2.328466 -5.567600 7.002810 0.306319 -0.897314 0.125824 12.793106 -60.472137 -9.357785 28.563905 86.624202 34.064711 -4.188504 -12.539692 2.014935 0.012843 0.112672 0.011679
-145.301438 51.631191 -60.164712 177.883258 -20.316124 -0.102358 -1.773425 12.309987 0.968830 -0.144162 0.932400 0.123928 -0.237916 1.597003 0.218827 -1.580248 11.226037 1.388898 -2.593814 16.299198 -1.066264 -2.437745 -8.585664 -0.498469 4.137421 16.411578 12.083103 30.226703 -5.011387 -28.559219 66.652020 -70.970013 -102.563041 -0.424897 5.158637 11.204564 -2.227931 15.225511 -14.652910 -32.446530 2.858332 28.940579 -63.237993 -74.303412 103.780998 12.041491 8.240884 -9.834572 -12.743581 -62.477684 5.416729 -68.221373 82.451716 -76.567145 -2.325394 -5.564601 6.986088 0.306931 -0.898407 0.126897 12.832855 -60.460100 -9.384772 28.466701 86.624989 33.966407 -4.194854 -12.542682 2.015343 0.014783 0.112781 0.013702
-145.298452 51.630421 -60.166016 177.876640 -20.318276 -0.091035 -1.762884 12.318092 0.970950 -0.148306 0.929097 0.117346 -0.228292 1.606790 0.227826 -1.565406 11.236365 1.387881 -2.597547 16.278102 -1.048845 -2.443597 -8.609616 -0.476692 4.163908 16.366858 12.067839 30.183356 -5.000013 -28.526378 66.453571 -70.958750 -102.319850 -0.410704 5.246743 11.226268 -2.264301 15.189258 -14.641089 -32.450166 2.859237 28.965766 -63.355043 -74.264446 103.903458 12.079334 8.301408 -9.851795 -12.756341 -62.479973 5.418541 -68.223804 82.458976 -76.569387 -2.324653 -5.558448 6.974879 0.306091 -0.895859 0.128460 12.855908 -60.454543 -9.394355 28.373852 86.629277 33.870675 -4.197051 -12.544399 2.015993 0.014730 0.111396 0.014889
-145.295982 51.629243 -60.167096 177.867370 -20.318280 -0.073556 -1.755057 12.319459 0.960121 -0.140608 0.936275 0.127059 -0.229281 1.606858 0.223583 -1.553945 11.244009 1.387428 -2.592842 16.262385 -1.027630 -2.451925 -8.630702 -0.454191 4.177748 16.337010 12.051792 30.177592 -4.972703 -28.493651 66.271326 -70.939799 -102.117890 -0.397690 5.334491 11.259375 -2.291661 15.163571 -14.632269 -32.457909 2.869671 29.036410 -63.436098 -74.254713 103.988835 12.090685 8.364601 -9.885051 -12.789792 -62.486150 5.432090 -68.202753 82.472275 -76.560482 -2.311317 -5.549452 6.963089 0.298973 -0.900534 0.123587 12.886180 -60.449533 -9.409053 28.207506 86.634463 33.697089 -4.197924 -12.547273 2.016408 0.016365 0.111664 0.018185
-145.291057 51.627904 -60.168438 177.854742 -20.320192 -0.067585 -1.734556 12.329113 0.971513 -0.139327 0.937976 0.127074 -0.236586 1.600237 0.215314 -1.550076 11.246579 1.387294 -2.573431 16.259701 -1.004651 -2.468292 -8.643346 -0.450419 4.184695 16.326029 12.044387 30.199649 -4.926582 -28.465181 66.217042 -70.923041 -102.091151 -0.363479 5.443972 11.338731 -2.300559 15.155038 -14.629016 -32.457286 2.871931 29.073267 -63.602163 -74.196650 104.142291 12.034576 8.443527 -10.010021 -12.784939 -62.485969 5.433104 -68.207082 82.470488 -76.553843 -2.314020 -5.541805 6.946112 0.309650 -0.898833 0.128549 12.893164 -60.448073 -9.397458 28.137317 86.641653 33.623283 -4.199067 -12.551357 2.016330 0.009134 0.110500 0.013600
